# xmcd
#
# Track frame offsets:
#	150
#	16412
#	33215
#	46182
#	64455
#	81040
#	95507
#	107192
#	122472
#	135547
#	146660
#	158367
#	173420
#	186930
#	203045
#	215917
#	224755
#	239767
#	251565
#	275395
#	302512
#	315352
#	328322
#
# Disc length: 4557 seconds
# Revision: 1
# Processed by: cddbd v1.5.2PL0 Copyright (c) Steve Scherf et al.
# Submitted via: dBpowerAMP V12.0
#
DISCID=4d11cb17
DTITLE=Various Artist - Lady Sings the Blues Night and Day [CD 2/2)
DYEAR=2002
DGENRE=Blues
TTITLE0=Nina Simone - My Baby Just Cares for Me
TTITLE1=Gladys Knight - Best Thing That Ever Happened to Me
TTITLE2=Bobby Gentry - I'll Never Fall in Love Again
TTITLE3=Nina Simone - I Loves You Porgy
TTITLE4=Aretha Franklin - Unforgettable
TTITLE5=Sarah Vaughan - All or Nothing at All
TTITLE6=Tams - Oh No Not My Baby
TTITLE7=Peggy Scott - Every Little Bit Hurts
TTITLE8=Carla Thomas - I Like What You're Doing to Me
TTITLE9=Nancy Wilson - Heres That Rainy Day
TTITLE10=Sue Rainey - September in the Rain
TTITLE11=Julie London - The Thrill Is Gone
TTITLE12=Keely Smith - Someone to Watch Over Me
TTITLE13=Dinah Shore - My Funny Valentine
TTITLE14=Kay Starr - I Cry by Night
TTITLE15=Betty Hutton - Hit the Road to Dreamland
TTITLE16=Billie Holiday - Love Me or Leave Me
TTITLE17=June Christy - Looking for a Boy
TTITLE18=Sarah Vaughan - In a Sentimental Mood
TTITLE19=Karrin Allyson - Moanin'
TTITLE20=Peggy Lee - As Time Goes by
TTITLE21=Julie London - Around Midnight
TTITLE22=Billie Holiday - Night and Day
EXTD=
EXTT0=
EXTT1=
EXTT2=
EXTT3=
EXTT4=
EXTT5=
EXTT6=
EXTT7=
EXTT8=
EXTT9=
EXTT10=
EXTT11=
EXTT12=
EXTT13=
EXTT14=
EXTT15=
EXTT16=
EXTT17=
EXTT18=
EXTT19=
EXTT20=
EXTT21=
EXTT22=
PLAYORDER=
